<svg width="67" height="67" xmlns="http://www.w3.org/2000/svg">

 <g>
  <title>background</title>
  <rect fill="none" id="canvas_background" height="69" width="69" y="-1" x="-1"/>
 </g>
 <g>
  <title>Layer 1</title>
  <path stroke="null" id="svg_2" fill="#4AA0EC" d="m33.499999,4.288437c-16.123945,0 -29.202044,13.078099 -29.202044,29.221271c0,16.123755 13.078099,29.201854 29.202044,29.201854s29.202044,-13.078099 29.202044,-29.201854c0,-16.143172 -13.078099,-29.221271 -29.202044,-29.221271zm15.571885,21.244963c0,0 -0.05711,3.578869 -0.590133,5.82518c-0.533023,2.227084 -2.322457,8.452221 -7.652687,12.830434c-5.33023,4.378403 -11.840725,5.33023 -15.533812,5.082755c-3.674051,-0.247475 -8.204746,-1.656179 -11.117336,-3.464649c0,0 6.681824,0.723388 11.612286,-3.35024c0,0 -4.987572,0.228438 -7.348102,-5.501559c0,0 1.694252,0.304394 3.540795,-0.209402c0,0 -6.282056,-1.142382 -6.358203,-7.900352c0,0 2.055946,1.008936 3.578869,0.913754c0,0 -5.996508,-4.587615 -2.341494,-10.507977c0,0 5.996508,7.957272 16.428529,8.261666c-2.531859,-6.986218 8.813916,-13.610932 13.477867,-7.25292c0,0 1.808471,-0.056919 5.120828,-1.846354c0,0 -0.799534,2.512632 -3.331394,4.187847c0,0 1.903653,-0.018846 4.245147,-1.027973c-0.171329,0.266702 -1.599069,2.455713 -3.731161,3.95979z"/>
 </g>
</svg>